<?xml version="1.0" encoding="iso-8859-1"?>
<!-- Generator: Adobe Illustrator 19.0.0, SVG Export Plug-In . SVG Version: 6.00 Build 0)  -->
<svg version="1.1" id="Layer_1" xmlns="http://www.w3.org/2000/svg" xmlns:xlink="http://www.w3.org/1999/xlink" x="0px" y="0px"
	viewBox="0 0 460 460" style="enable-background:new 0 0 460 460;" xml:space="preserve">
	<g>
		<path style="fill:#4DE1FF;" d="M434.684,125C396.532,50.777,319.197,0,230,0S63.468,50.777,25.316,125L230,145L434.684,125z" />
		<path style="fill:#2DB8D4;" d="M261.805,73.195C253.656,65.047,242.407,60,230,60c-24.813,0-45,20.188-45,45v205.61L272.823,135
		V91.189C270.605,84.329,266.789,78.18,261.805,73.195z" />
		<path style="fill:#2DB8D4;" d="M358.873,66.127l3.95,25.062c-2.218-6.86-6.034-13.009-11.018-17.994
		C343.656,65.047,332.407,60,320,60c-24.813,0-45,20.188-45,45v205.61L427.746,135L358.873,66.127z" />
		<path style="fill:#FFE1A0;" d="M25.316,125H230l10,171.522l-235.29-20C1.623,261.497,0,245.939,0,230
		C0,192.171,9.136,156.478,25.316,125z" />
		<path style="fill:#FFC240;" d="M434.684,125h-16.938v29.584h29.602C443.806,144.378,439.566,134.497,434.684,125z" />
		<rect x="230" y="125" style="fill:#FFC240;" width="44.684" height="171.522" />
		<path style="fill:#FF984C;" d="M275.3,292.279l179.99-15.756C458.377,261.497,460,245.939,460,230
		c0-26.417-4.468-51.786-12.666-75.411L417.746,125H275.3V292.279z" />
		<path style="fill:#096C80;" d="M230,50c-30.327,0-55,24.673-55,55v185h20v-60h35l10-10l-10-10h-35v-30h35l10-10l-10-10h-35v-55
		c0-19.299,15.701-35,35-35s35,15.701,35,35h20C285,74.673,260.327,50,230,50z" />
		<path style="fill:#03242B;" d="M320,50c-30.327,0-55,24.673-55,55v55h-35v20h35v30h-35v20h35v60h20V105c0-19.299,15.701-35,35-35
		s35,15.701,35,35v20h20v-20C375,74.673,350.327,50,320,50z" />
		<path style="fill:#2DB8D4;" d="M411.8,250c-10.272,16.092-26.802,26.596-45.469,26.596c-18.652,0-35.136-10.504-45.423-26.596
		c-10.302,16.092-26.802,26.596-45.454,26.596c-18.667,0-35.151-10.504-45.438-26.596l-10.012,121.896l216.249-40
		c8.58-17.334,15.039-35.905,19.038-55.373C437.437,275.823,421.714,265.531,411.8,250z" />
		<path style="fill:#4DE1FF;" d="M411.8,310c-10.272,16.092-26.802,26.596-45.469,26.596c-18.652,0-35.136-10.504-45.423-26.596
		c-10.302,16.092-26.802,26.596-45.454,26.596c-18.667,0-35.151-10.504-45.438-26.596c-0.004,0.027,0-60,0-60
		c-10.272,16.092-26.802,26.596-45.453,26.596c-18.652,0-35.152-10.504-45.438-26.596c-10.302,16.092-26.802,26.596-45.453,26.596
		c-18.653,0-35.152-10.504-45.438-26.596c-9.914,15.532-25.666,25.823-43.522,26.522c4,19.471,10.467,38.041,19.052,55.376
		L230.008,460c90.432-0.003,168.658-52.205,206.231-128.11C426.427,327.336,417.983,319.688,411.8,310z" />
		<path style="fill:#C4F5FF;" d="M184.562,336.596c-18.652,0-35.152-10.504-45.438-26.596
		c-10.302,16.092-26.802,26.596-45.453,26.596c-18.653,0-35.152-10.504-45.438-26.596c-6.186,9.69-14.644,17.34-24.468,21.895
		C61.338,407.8,139.567,460,230,460c0.007,0,0.015-150,0.015-150C219.744,326.092,203.214,336.596,184.562,336.596z" />
	</g>
	<g></g>
	<g></g>
	<g></g>
	<g></g>
	<g></g>
	<g></g>
	<g></g>
	<g></g>
	<g></g>
	<g></g>
	<g></g>
	<g></g>
	<g></g>
	<g></g>
	<g></g>
</svg>